<svg width="95" height="95" viewBox="0 0 95 95" fill="none" xmlns="http://www.w3.org/2000/svg">
<circle cx="47.5" cy="47.5" r="45.5" fill="white" stroke="white" stroke-width="4"/>
<circle cx="47.5" cy="47.5" r="41.5" fill="black" stroke="url(#paint0_linear_24_117)" stroke-width="4"/>
<path fill-rule="evenodd" clip-rule="evenodd" d="M35.2615 26C31.8034 26 29 28.7781 29 32.2051V63.7949C29 67.2219 31.8034 70 35.2615 70H59.7385C63.1966 70 66 67.2219 66 63.7949V32.2051C66 28.7781 63.1966 26 59.7385 26H35.2615ZM35.8308 45.1795C34.5733 45.1795 33.5538 46.1897 33.5538 47.4359V64.9231C33.5538 66.1693 34.5733 67.1795 35.8308 67.1795H38.6769C39.9344 67.1795 40.9538 66.1693 40.9538 64.9231V47.4359C40.9538 46.1897 39.9344 45.1795 38.6769 45.1795H35.8308ZM43.2308 38.4103C43.2308 37.1641 44.2502 36.1538 45.5077 36.1538H48.9231C50.1806 36.1538 51.2 37.1641 51.2 38.4103V64.9231C51.2 66.1693 50.1806 67.1795 48.9231 67.1795H45.5077C44.2502 67.1795 43.2308 66.1693 43.2308 64.9231V38.4103ZM55.7538 48.5641C54.4963 48.5641 53.4769 49.5743 53.4769 50.8205V64.9231C53.4769 66.1693 54.4963 67.1795 55.7538 67.1795H58.6C59.8575 67.1795 60.8769 66.1693 60.8769 64.9231V50.8205C60.8769 49.5743 59.8575 48.5641 58.6 48.5641H55.7538Z" fill="white"/>
<defs>
<linearGradient id="paint0_linear_24_117" x1="47.5" y1="4" x2="47.5" y2="91" gradientUnits="userSpaceOnUse">
<stop stop-color="#17DC95"/>
<stop offset="1" stop-color="#17DC95"/>
</linearGradient>
</defs>
</svg>
