<svg width="95" height="95" viewBox="0 0 95 95" fill="none" xmlns="http://www.w3.org/2000/svg">
<circle cx="47.5" cy="47.5" r="45.5" fill="white" stroke="white" stroke-width="4"/>
<circle cx="47.5" cy="47.5" r="41.5" fill="black" stroke="url(#paint0_linear_24_108)" stroke-width="4"/>
<path d="M34 44.8636C34 43.5164 35.1435 42.4242 36.5541 42.4242C37.9646 42.4242 39.1081 43.5164 39.1081 44.8636V68.5606C39.1081 69.9078 37.9646 71 36.5541 71C35.1435 71 34 69.9078 34 68.5606V44.8636Z" fill="white"/>
<path d="M41.2973 27.4394C41.2973 26.0922 42.4408 25 43.8514 25C45.2619 25 46.4054 26.0922 46.4054 27.4394V68.5606C46.4054 69.9078 45.2619 71 43.8514 71C42.4408 71 41.2973 69.9078 41.2973 68.5606V27.4394Z" fill="white"/>
<path d="M48.5946 60.197C48.5946 58.8497 49.7381 57.7576 51.1486 57.7576C52.5592 57.7576 53.7027 58.8497 53.7027 60.197V68.5606C53.7027 69.9078 52.5592 71 51.1486 71C49.7381 71 48.5946 69.9078 48.5946 68.5606V60.197Z" fill="white"/>
<path d="M55.8919 37.8939C55.8919 36.5467 57.0354 35.4545 58.4459 35.4545C59.8565 35.4545 61 36.5467 61 37.8939V68.5606C61 69.9078 59.8565 71 58.4459 71C57.0354 71 55.8919 69.9078 55.8919 68.5606V37.8939Z" fill="white"/>
<defs>
<linearGradient id="paint0_linear_24_108" x1="47.5" y1="4" x2="47.5" y2="91" gradientUnits="userSpaceOnUse">
<stop stop-color="#17DC95"/>
<stop offset="1" stop-color="#17DC95"/>
</linearGradient>
</defs>
</svg>
