<svg width="95" height="95" viewBox="0 0 95 95" fill="none" xmlns="http://www.w3.org/2000/svg">
<circle cx="47.5" cy="47.5" r="45.5" fill="white" stroke="white" stroke-width="4"/>
<circle cx="47.5" cy="47.5" r="41.5" fill="black" stroke="url(#paint0_linear_24_114)" stroke-width="4"/>
<path d="M28.5192 33C26.0233 33 24 35.0351 24 37.5455V38.4545H71V37.5455C71 35.0351 68.9767 33 66.4808 33H28.5192Z" fill="white"/>
<path fill-rule="evenodd" clip-rule="evenodd" d="M71 46.6364H24V58.4545C24 60.9649 26.0233 63 28.5192 63H66.4808C68.9767 63 71 60.9649 71 58.4545V46.6364ZM27.2414 58.4545C27.2414 57.9525 27.646 57.5455 28.1452 57.5455H36.0617C36.5609 57.5455 36.9655 57.9525 36.9655 58.4545C36.9655 58.9566 36.5609 59.3636 36.0617 59.3636H28.1452C27.646 59.3636 27.2414 58.9566 27.2414 58.4545ZM38.6797 57.5455C38.1805 57.5455 37.7759 57.9525 37.7759 58.4545C37.7759 58.9566 38.1805 59.3636 38.6797 59.3636H40.9237C41.4229 59.3636 41.8276 58.9566 41.8276 58.4545C41.8276 57.9525 41.4229 57.5455 40.9237 57.5455H38.6797Z" fill="white"/>
<defs>
<linearGradient id="paint0_linear_24_114" x1="47.5" y1="4" x2="47.5" y2="91" gradientUnits="userSpaceOnUse">
<stop stop-color="#17DC95"/>
<stop offset="1" stop-color="#17DC95"/>
</linearGradient>
</defs>
</svg>
