<svg width="59" height="80" viewBox="0 0 59 80" xmlns="http://www.w3.org/2000/svg">
<path fill-rule="evenodd" clip-rule="evenodd" d="M57.8439 7.99552C60.8538 14.7677 57.7839 22.6799 50.9873 25.668C48.2308
26.8798 45.2848 27.0957 42.5555 26.4724L34.3453 44.4325L38.2063 46.218C39.5332 46.8316 40.1109 48.3995 39.4965 49.7201C38.882
51.0406 37.3083 51.6137 35.9813 51.0001L32.1524 49.2295L28.9182 56.3044L32.4017 57.9152C33.7287 58.5288 34.3063 60.0967 33.6919
61.4173C33.0775 62.7378 31.5037 63.3109 30.1767 62.6973L24.5452 60.0932C23.8211 59.7584 23.3202 59.1393 23.1143 58.4314C22.8128
57.7636 22.7904 56.9752 23.1186 56.2572L37.7227 24.3102C35.82 22.9595 34.2451 21.0982 33.231 18.8165C30.2211 12.0443 33.291
4.13209 40.0877 1.14397C46.8843 -1.84415 54.8341 1.22338 57.8439 7.99552ZM45.9289 31.4539C46.7226 30.5342 48.1225 30.4247
48.9835 31.2846C53.3027 35.5988 56.1412 41.1893 57.0514 47.2492C58.0707 54.036 56.6032 60.9582 52.9172 66.7499C49.2313
72.5416 43.5731 76.8157 36.9776 78.7909C30.382 80.766 23.2896 80.31 16.9974 77.5063C10.7052 74.7027 5.6337 69.7386 2.7102
63.522C-0.213313 57.3054 -0.793419 50.2516 1.07597 43.6505C2.94533 37.0493 7.13927 31.342 12.8908 27.5722C18.0264 24.2061
24.0974 22.5855 30.2023 22.9161C31.4192 22.9821 32.2712 24.0949 32.1134 25.2979L32.0073 26.106C31.8495 27.309 30.7412 28.1446
29.5234 28.0995C24.6678 27.9197 19.8573 29.2464 15.7712 31.9247C11.0686 35.007 7.63955 39.6734 6.1111 45.0706C4.58265 50.4678
5.05697 56.2351 7.44727 61.3179C9.83759 66.4008 13.9841 70.4594 19.1287 72.7517C24.2734 75.0441 30.0722 75.4169 35.4649
73.802C40.8576 72.1871 45.4837 68.6925 48.4974 63.9571C51.5111 59.2217 52.711 53.562 51.8776 48.013C51.1534 43.1913
48.9361 38.7331 45.5629 35.2464C44.7169 34.372 44.6021 32.9913 45.3957 32.0716L45.9289 31.4539ZM45.5 21C49.6421 21 53
17.6421 53 13.5C53 9.35786 49.6421 6 45.5 6C41.3579 6 38 9.35786 38 13.5C38 17.6421 41.3579 21 45.5 21Z" fill="white"/>
</svg>
