<svg width="72" height="98" viewBox="0 0 72 98" fill="none" xmlns="http://www.w3.org/2000/svg">
    <path fill-rule="evenodd" clip-rule="evenodd" d="M70.5892 9.79451C74.2622 18.0904 70.516 27.7829
    62.2217 31.4433C58.858 32.9278 55.2628 33.1923 51.9321 32.4287L41.9129 54.4299L46.6247 56.617C48.244
    57.3687 48.9488 59.2894 48.1991 60.9071C47.4493 62.5247 45.5287 63.2268 43.9094 62.4751L39.2368
    60.3061L35.29 68.9728L39.5411 70.9461C41.1604 71.6978 41.8653 73.6185 41.1155 75.2361C40.3657 76.8539
    38.4452 77.5559 36.8258 76.8042L29.9535 73.6142C29.0699 73.204 28.4585 72.4457 28.2072 71.5785C27.8394
    70.7604 27.812 69.7947 28.2125 68.9151L46.0345 29.7799C43.7126 28.1254 41.7906 25.8453 40.5531
    23.0502C36.88 14.7543 40.6263 5.06181 48.9205 1.40137C57.2148 -2.25909 66.9161 1.49864 70.5892
     9.79451ZM55.5254 25.725C60.5802 25.725 64.678 21.6116 64.678 16.5375C64.678 11.4634 60.5802 7.35
      55.5254 7.35C50.4706 7.35 46.3729 11.4634 46.3729 16.5375C46.3729 21.6116 50.4706 25.725 55.5254
       25.725Z" fill="#17DC95"/>
    <path d="M56.0488 38.531C57.0174 37.4044 58.7258 37.2703 59.7764 38.3237C65.0474 43.6085 68.5113
     50.4568 69.622 57.8803C70.8659 66.1941 69.0751 74.6738 64.577 81.7686C60.0788 88.8634 53.174
      94.0993 45.1252 96.5188C37.0763 98.9383 28.4212 98.3797 20.7426 94.9452C13.064 91.5108 6.87502
       85.4298 3.30737 77.8145C-0.260314 70.1991 -0.96824 61.5582 1.31304 53.4718C3.5943 45.3855
       8.71233 38.394 15.7312 33.7759C21.9983 29.6525 29.407 27.6672 36.8571 28.0723C38.3421 28.153
       39.3818 29.5163 39.1892 30.99L39.0598 31.9799C38.8672 33.4536 37.5146 34.4771 36.0285 34.4219C30.1031
        34.2016 24.2327 35.8269 19.2462 39.1077C13.5074 42.8836 9.32284 48.5999 7.45761 55.2115C5.59239
        61.823 6.17122 68.888 9.0882 75.1144C12.0052 81.3409 17.0654 86.3128 23.3435 89.1208C29.6217
         91.929 36.6982 92.3857 43.2792 90.4075C49.8601 88.4292 55.5056 84.1483 59.1833 78.3474C62.8611
          72.5466 64.3252 65.6135 63.3082 58.8159C62.4245 52.9093 59.7186 47.4481 55.6022 43.1769C54.5698
           42.1057 54.4296 40.4144 55.3982 39.2877L56.0488 38.531Z" fill="#17DC95"/>
</svg>