<svg width="95" height="95" viewBox="0 0 95 95" fill="none" xmlns="http://www.w3.org/2000/svg">
<circle cx="47.5" cy="47.5" r="45.5" fill="white" stroke="white" stroke-width="4"/>
<circle cx="47.5" cy="47.5" r="41.5" fill="black" stroke="url(#paint0_linear_24_107)" stroke-width="4"/>
<path d="M49.6987 53.206C49.6987 54.523 48.6248 55.5907 47.3001 55.5907C45.9754 55.5907 44.9015 54.523 44.9015 53.206C44.9015 51.8891 45.9754 50.8214 47.3001 50.8214C48.6248 50.8214 49.6987 51.8891 49.6987 53.206Z" fill="white"/>
<path d="M57.0943 53.206C57.0943 54.523 56.0204 55.5907 54.6957 55.5907C53.371 55.5907 52.2971 54.523 52.2971 53.206C52.2971 51.8891 53.371 50.8214 54.6957 50.8214C56.0204 50.8214 57.0943 51.8891 57.0943 53.206Z" fill="white"/>
<path d="M62.0913 55.5907C63.416 55.5907 64.4899 54.523 64.4899 53.206C64.4899 51.8891 63.416 50.8214 62.0913 50.8214C60.7666 50.8214 59.6927 51.8891 59.6927 53.206C59.6927 54.523 60.7666 55.5907 62.0913 55.5907Z" fill="white"/>
<path fill-rule="evenodd" clip-rule="evenodd" d="M67.9167 43.0714H57.8939V36.0595C57.8939 33.8175 56.0658 32 53.8106 32H27.0833C24.8282 32 23 33.8175 23 36.0595V47.869C23 50.111 24.8282 51.9286 27.0833 51.9286H37.1061V58.9405C37.1061 61.1825 38.9342 63 41.1894 63H67.9167C70.1718 63 72 61.1825 72 58.9405V47.131C72 44.889 70.1718 43.0714 67.9167 43.0714ZM27.0833 33.1071H53.8106C55.4507 33.1071 56.7803 34.4289 56.7803 36.0595V43.0714H41.1894C38.9342 43.0714 37.1061 44.889 37.1061 47.131V50.8214H27.0833C25.4432 50.8214 24.1136 49.4996 24.1136 47.869V36.0595C24.1136 34.4289 25.4432 33.1071 27.0833 33.1071ZM67.9167 44.1786H41.1894C39.5493 44.1786 38.2197 45.5004 38.2197 47.131V58.9405C38.2197 60.5711 39.5493 61.8929 41.1894 61.8929H67.9167C69.5568 61.8929 70.8864 60.5711 70.8864 58.9405V47.131C70.8864 45.5004 69.5568 44.1786 67.9167 44.1786Z" fill="white"/>
<defs>
<linearGradient id="paint0_linear_24_107" x1="47.5" y1="4" x2="47.5" y2="91" gradientUnits="userSpaceOnUse">
<stop stop-color="#17DC95"/>
<stop offset="1" stop-color="#17DC95"/>
</linearGradient>
</defs>
</svg>
