<svg width="51" height="80" viewBox="0 0 51 80" fill="none" xmlns="http://www.w3.org/2000/svg">
<path fill-rule="evenodd" clip-rule="evenodd" d="M6.68852 0C2.99456 0 0 2.98472 0
6.66667V73.3333C0 77.0153 2.99456 80 6.68852 80H44.3115C48.0054 80 51 77.0153 51 73.3333V6.66667C51
 2.98472 48.0054 0 44.3115 0H6.68852ZM19.2295 65C17.3825 65 15.8852 66.4924 15.8852 68.3333C15.8852
  70.1743 17.3825 71.6667 19.2295 71.6667H30.9344C32.7814 71.6667 34.2787 70.1743 34.2787 68.3333C34.2787
  66.4924 32.7814 65 30.9344 65H19.2295Z" fill="white"/>
</svg>
