<svg width="80" height="80" viewBox="0 0 80 80" fill="none" xmlns="http://www.w3.org/2000/svg">
    <path d="M27.3016 6.34921C27.3016 2.84264 30.1442 0 33.6508 0H46.3492C49.8558 0 52.6984 2.84264
52.6984 6.34921V73.6508C52.6984 77.1574 49.8558 80 46.3492 80H33.6508C30.1442 80 27.3016 77.1574
27.3016 73.6508V6.34921Z" fill="#17DC95"/>
    <path d="M73.6508 27.3016C77.1574 27.3016 80 30.1442 80 33.6508V46.3492C80 49.8558 77.1574 52.6984
73.6508 52.6984L6.34921 52.6984C2.84264 52.6984 -1.53277e-07 49.8558 0 46.3492L5.55065e-07
33.6508C7.08342e-07 30.1442 2.84264 27.3016 6.34921 27.3016L73.6508 27.3016Z" fill="#17DC95"/>
</svg>
