<svg width="60" height="80" viewBox="0 0 60 80" fill="none" xmlns="http://www.w3.org/2000/svg">
<path fill-rule="evenodd" clip-rule="evenodd" d="M5.68429 0C2.54499 0 7.9751e-05 2.35656 7.9751e-05
 5.26352V60.2381L0 63C0.25522 63.2397 3.4573 65.2899 3.79825 65.4833L28.3219 79.3969C29.7393 80.201
 31.524 80.201 32.9414 79.3969L57.4651 65.4833C58.8568 64.6937 59.939 63.7384 60.0001 62.5L60.0001
 60.2381V5.26352C60.0001 2.35656 57.4552 0 54.3159 0H5.68429ZM54.4692 58.357C54.7987 58.0005 55
 57.5238 55 57L55 9C55 7.89543 54.1046 7 53 7C51.8954 7 51 7.89543 51 9L51 56.3287L31.67 67.4888C30.7135
  68.0411 30.3857 69.2643 30.938 70.2209C31.4903 71.1775 32.7135 71.5052 33.67 70.9529L53.5693
  59.4641C54.0127 59.2081 54.321 58.808 54.4692 58.357Z" fill="white"/>
</svg>
