<svg width="95" height="95" viewBox="0 0 95 95" fill="none" xmlns="http://www.w3.org/2000/svg">
<circle cx="47.5" cy="47.5" r="45.5" fill="white" stroke="white" stroke-width="4"/>
<circle cx="47.5" cy="47.5" r="41.5" fill="black" stroke="url(#paint0_linear_24_111)" stroke-width="4"/>
<path fill-rule="evenodd" clip-rule="evenodd" d="M35.2308 26C32.3419 26 30 28.3176 30 31.1765V64.8235C30 67.6824 32.3419 70 35.2308 70H58.7692C61.6581 70 64 67.6824 64 64.8235V31.1765C64 28.3176 61.6581 26 58.7692 26H35.2308ZM35.2308 31.6941C34.653 31.6941 34.1846 32.1576 34.1846 32.7294C34.1846 33.3012 34.653 33.7647 35.2308 33.7647H58.7692C59.347 33.7647 59.8154 33.3012 59.8154 32.7294C59.8154 32.1576 59.347 31.6941 58.7692 31.6941H35.2308ZM34.1846 37.9059C34.1846 37.3341 34.653 36.8706 35.2308 36.8706H44.1231C44.7009 36.8706 45.1692 37.3341 45.1692 37.9059C45.1692 38.4777 44.7009 38.9412 44.1231 38.9412H35.2308C34.653 38.9412 34.1846 38.4777 34.1846 37.9059ZM35.2308 42.0471C34.653 42.0471 34.1846 42.5106 34.1846 43.0824C34.1846 43.6542 34.653 44.1176 35.2308 44.1176H52.4923C53.0701 44.1176 53.5385 43.6542 53.5385 43.0824C53.5385 42.5106 53.0701 42.0471 52.4923 42.0471H35.2308ZM34.1846 48.2588C34.1846 47.687 34.653 47.2235 35.2308 47.2235H38.8923C39.4701 47.2235 39.9385 47.687 39.9385 48.2588C39.9385 48.8306 39.4701 49.2941 38.8923 49.2941H35.2308C34.653 49.2941 34.1846 48.8306 34.1846 48.2588ZM42.5538 47.2235C41.9761 47.2235 41.5077 47.687 41.5077 48.2588C41.5077 48.8306 41.9761 49.2941 42.5538 49.2941H52.4923C53.0701 49.2941 53.5385 48.8306 53.5385 48.2588C53.5385 47.687 53.0701 47.2235 52.4923 47.2235H42.5538ZM34.1846 53.4353C34.1846 52.8635 34.653 52.4 35.2308 52.4H52.4923C53.0701 52.4 53.5385 52.8635 53.5385 53.4353C53.5385 54.0071 53.0701 54.4706 52.4923 54.4706H35.2308C34.653 54.4706 34.1846 54.0071 34.1846 53.4353ZM35.2308 57.5765C34.653 57.5765 34.1846 58.04 34.1846 58.6118C34.1846 59.1836 34.653 59.6471 35.2308 59.6471H41.5077C42.0855 59.6471 42.5538 59.1836 42.5538 58.6118C42.5538 58.04 42.0855 57.5765 41.5077 57.5765H35.2308ZM43.0769 58.6118C43.0769 58.04 43.5453 57.5765 44.1231 57.5765H52.4923C53.0701 57.5765 53.5385 58.04 53.5385 58.6118C53.5385 59.1836 53.0701 59.6471 52.4923 59.6471H44.1231C43.5453 59.6471 43.0769 59.1836 43.0769 58.6118ZM35.2308 62.7529C34.653 62.7529 34.1846 63.2164 34.1846 63.7882C34.1846 64.36 34.653 64.8235 35.2308 64.8235H52.4923C53.0701 64.8235 53.5385 64.36 53.5385 63.7882C53.5385 63.2164 53.0701 62.7529 52.4923 62.7529H35.2308ZM54.5846 43.0824C54.5846 42.5106 55.053 42.0471 55.6308 42.0471H58.7692C59.347 42.0471 59.8154 42.5106 59.8154 43.0824C59.8154 43.6542 59.347 44.1176 58.7692 44.1176H55.6308C55.053 44.1176 54.5846 43.6542 54.5846 43.0824ZM48.3077 36.8706C47.7299 36.8706 47.2615 37.3341 47.2615 37.9059C47.2615 38.4777 47.7299 38.9412 48.3077 38.9412H58.7692C59.347 38.9412 59.8154 38.4777 59.8154 37.9059C59.8154 37.3341 59.347 36.8706 58.7692 36.8706H48.3077Z" fill="white"/>
<defs>
<linearGradient id="paint0_linear_24_111" x1="47.5" y1="4" x2="47.5" y2="91" gradientUnits="userSpaceOnUse">
<stop stop-color="#17DC95"/>
<stop offset="1" stop-color="#17DC95"/>
</linearGradient>
</defs>
</svg>
